<?xml version="1.0" encoding="utf-8"?>
<!-- Generator: Adobe Illustrator 28.2.0, SVG Export Plug-In . SVG Version: 6.00 Build 0)  -->
<svg version="1.1" id="Layer_1" xmlns="http://www.w3.org/2000/svg" xmlns:xlink="http://www.w3.org/1999/xlink" x="0px" y="0px"
	 viewBox="0 0 360 360" style="enable-background:new 0 0 360 360;" xml:space="preserve">
<style type="text/css">
	.st0{clip-path:url(#SVGID_00000114777124262571041650000014110688733870391738_);}
	.st1{fill:#EE7300;stroke:#000000;stroke-width:8;stroke-miterlimit:10;}
</style>
<g>
	<defs>
		<circle id="SVGID_1_" cx="181.7" cy="173.15" r="133.18"/>
	</defs>
	<clipPath id="SVGID_00000109010199529349571650000004129641383864046983_">
		<use xlink:href="#SVGID_1_"  style="overflow:visible;"/>
	</clipPath>
	<g style="clip-path:url(#SVGID_00000109010199529349571650000004129641383864046983_);">
		<path d="M384.03,83.76c-0.8-1.98-0.88-4.14-39.37-2.18c-1.12,0.06-2.22,0.41-3.14,1.06c-0.63,0.44-1.23,0.97-1.36,1.43
			c-0.31,0.9,0.15,2.85,1.2,3.6c2.11,1.5,8.27,0.75,13.23,0.75c5.25-0.12,18.83-0.79,20.63-1c-1.83,6.75-7.53,21.39-7.43,24.2
			c0.01,0.11,0.02,0.19,0.03,0.29c-0.02,0.72,0.18,1.55,0.53,2.13c0.03,0.05,0.07,0.1,0.1,0.15c0.03,0.04,0.06,0.09,0.09,0.13
			c0.08,0.1,0.18,0.19,0.28,0.28c0.01,0.01,0.01,0.02,0.02,0.03c0.59,0.59,2.1,1.2,3.01,0.9c0.02-0.01,0.04-0.02,0.07-0.03
			c0.48-0.06,0.99-0.27,1.59-0.87c1.35-1.35,4.79-10.17,6-13.63c1.5-3.76,3.34-9.44,4.09-12.57
			C384.22,85.72,384.25,84.32,384.03,83.76z"/>
		<circle class="st1" cx="182.42" cy="172.95" r="130.16"/>
		<g>
			<path d="M375.16,81.93c-20.81,21.78-143.94,60.49-198.61,62.42c-15.84,1.03-29.35-2.39-39.33-8.84
				c32.89-44,62.47-61.9,83.85-68.8c11.23-3.65,20.24-4.27,26.34-4.05c4.62,0.17,6.84,0.68,7.92,0.97
				c15.96,10.14,29.36,23.43,39.62,38.87l9.97-41.89c3.54-15.22-12.43-27.99-27.82-27.99H92.64c-15.39,0-24.17,12.77-27.76,27.76
				l-44,184.45c-3.59,14.93,12.37,27.75,27.76,27.75h43.43c-20.12-19.09-33.86-44-39.16-71.3c1.48-1.49,3.76-3.48,6.9-5.02
				c2.74-1.37,5.93-2.39,9.69-2.22c3.76,0.16,8.09,1.48,13.23,4.78c3.48,2.29,7.07,4.79,10.66,7.53
				c-4.67,21.95-3.76,41.55-0.4,57.79c0.63,2.97,1.31,5.76,2.05,8.5h9.01c-0.97-3.19-1.82-6.61-2.57-10.21
				c-2.9-14.19-3.94-31.06-0.52-50.11c16.99,13.91,33.98,32.03,45.37,52.78c7.9,12.07,15.59,31.63,17.3,34.08l8.96,0.49
				c-1.57-5.11-11.89-28.2-18.69-38.67c-12.88-23.54-32.09-43.32-50.9-58.08c2.22-8.78,5.41-18.02,9.8-27.53
				c6.21,4.34,13.11,8.78,20.8,13.23c50.96,29.64,112.74,54.32,149.73,62.53c0.23-0.74,2.83-2.26,3.06-3.06l1.02-5.44
				c-35.51-7.81-98.4-31.86-149.42-61.5c-7.98-4.62-15.04-9.18-21.32-13.63c4.22-8.15,9.3-16.53,15.4-25.08
				c11.79,7.69,27.47,11.62,44.97,10.49c42.86,1.07,175.86-36.7,198.1-62.37 M149.13,47.28c11.29-3.08,22.92-4.61,34.6-4.67
				c18.7,0,37.16,3.94,54.26,11.58c-5.64,0.51-12.19,1.65-19.72,4.1c-23.25,7.52-54.32,26.67-87.95,71.71
				c-4.33-4.11-7.58-9.01-9.63-14.36C114.02,97.84,120.06,73.11,149.13,47.28z M130.49,53.78c-20.07,23.2-24.85,46.45-17.9,64.8
				c2.68,7.07,6.96,13.23,12.6,18.35l-0.06,0.06c-6.1,8.55-11.22,16.93-15.5,25.13c-17.21-13.11-27.7-25.08-34.09-34.48
				c-4.67-6.9-7.12-12.42-8.37-16.19c0-0.05,0-0.05,0-0.12C81.3,85.76,103.59,65.52,130.49,53.78z M50.41,175.94
				c0.05-18.7,3.98-37.22,11.62-54.27c1.6,3.26,3.59,6.84,6.33,10.89c7.12,10.55,18.64,23.49,37.33,37.57
				c-4.39,9.35-7.64,18.41-10.03,27.13c-2.73-1.99-5.47-3.87-8.15-5.64c-6.21-4.1-12.2-5.81-17.56-6.04
				c-5.36-0.23-10.15,1.03-13.97,2.91c-1.71,0.85-3.25,1.82-4.62,2.79C50.75,186.2,50.47,181.06,50.41,175.94z"/>
		</g>
	</g>
</g>
</svg>
