<svg xmlns="http://www.w3.org/2000/svg" xmlns:xlink="http://www.w3.org/1999/xlink" width="500" zoomAndPan="magnify" viewBox="0 0 375 374.999991" height="500" preserveAspectRatio="xMidYMid meet" version="1.0"><defs><g/><clipPath id="ebe0a7959f"><path d="M 69.886719 38.25 L 314.386719 38.25 L 314.386719 282.75 L 69.886719 282.75 Z M 69.886719 38.25 " clip-rule="nonzero"/></clipPath></defs><path fill="#ffffff" d="M 301.308594 108.796875 C 300.824219 107.613281 300.777344 106.324219 277.800781 107.492188 C 277.128906 107.523438 276.476562 107.734375 275.925781 108.121094 C 275.554688 108.386719 275.191406 108.699219 275.113281 108.976562 C 274.929688 109.515625 275.199219 110.675781 275.824219 111.125 C 277.082031 112.019531 280.761719 111.574219 283.722656 111.574219 C 286.855469 111.5 294.96875 111.105469 296.042969 110.976562 C 294.949219 115.003906 291.546875 123.75 291.609375 125.421875 C 291.617188 125.480469 291.621094 125.535156 291.628906 125.589844 C 291.621094 126.019531 291.738281 126.515625 291.941406 126.859375 C 291.960938 126.886719 291.980469 126.921875 292.003906 126.949219 C 292.023438 126.976562 292.035156 127.003906 292.058594 127.03125 C 292.105469 127.089844 292.160156 127.144531 292.226562 127.199219 C 292.234375 127.207031 292.234375 127.214844 292.242188 127.214844 C 292.59375 127.566406 293.488281 127.925781 294.035156 127.75 C 294.046875 127.742188 294.058594 127.738281 294.074219 127.730469 C 294.367188 127.691406 294.664062 127.566406 295.019531 127.207031 C 295.828125 126.398438 297.878906 121.136719 298.597656 119.0625 C 299.492188 116.824219 300.59375 113.425781 301.035156 111.558594 C 301.414062 109.964844 301.4375 109.128906 301.308594 108.796875 Z M 301.308594 108.796875 " fill-opacity="1" fill-rule="nonzero"/><g clip-path="url(#ebe0a7959f)"><path stroke-linecap="butt" transform="matrix(0.679167, 0, 0, 0.679167, 69.887945, 38.249997)" fill="none" stroke-linejoin="miter" d="M 277.918066 182.277617 C 277.918066 184.152617 277.872054 186.021866 277.78003 187.896866 C 277.688005 189.766114 277.549968 191.629611 277.371671 193.493108 C 277.187622 195.356605 276.95756 197.214351 276.681487 199.066345 C 276.405413 200.918339 276.089079 202.764581 275.72098 204.605072 C 275.358634 206.439811 274.944523 208.263048 274.490152 210.080532 C 274.035781 211.898017 273.535398 213.703999 272.994753 215.492726 C 272.448358 217.287204 271.861701 219.064428 271.229032 220.824398 C 270.602115 222.590119 269.929186 224.338585 269.210244 226.064045 C 268.491302 227.795257 267.737851 229.509214 266.932637 231.200165 C 266.133173 232.891116 265.293449 234.564812 264.407713 236.215503 C 263.527728 237.866193 262.601732 239.499628 261.641225 241.104306 C 260.680719 242.708984 259.674201 244.290656 258.638925 245.849322 C 257.597897 247.407988 256.516609 248.937896 255.400811 250.439046 C 254.285013 251.945948 253.134707 253.418341 251.949891 254.867727 C 250.759323 256.317114 249.539998 257.731991 248.280412 259.118111 C 247.020826 260.509982 245.732482 261.861592 244.40963 263.184445 C 243.081025 264.51305 241.729415 265.801393 240.337544 267.060979 C 238.951424 268.314814 237.536547 269.53989 236.08716 270.730458 C 234.637773 271.915274 233.165381 273.065581 231.658479 274.181378 C 230.157329 275.297176 228.627421 276.378464 227.068755 277.419492 C 225.510089 278.454768 223.928417 279.461286 222.323739 280.421792 C 220.719061 281.382299 219.091377 282.308296 217.434935 283.18828 C 215.784245 284.074016 214.1163 284.91374 212.419598 285.713204 C 210.728647 286.512667 209.01469 287.271869 207.28923 287.990811 C 205.558018 288.704001 203.809552 289.382682 202.049582 290.0096 C 200.283861 290.642268 198.506637 291.228925 196.712159 291.77532 C 194.923432 292.315965 193.11745 292.816348 191.299965 293.270719 C 189.482481 293.72509 187.659244 294.133449 185.824505 294.501548 C 183.984014 294.863894 182.143523 295.18598 180.291529 295.462054 C 178.433784 295.738127 176.576038 295.968189 174.712541 296.146486 C 172.849044 296.330535 170.985547 296.468572 169.116299 296.560597 C 167.241299 296.652621 165.37205 296.698633 163.502802 296.698633 C 161.627802 296.698633 159.758553 296.652621 157.883553 296.560597 C 156.014305 296.468572 154.150808 296.330535 152.287311 296.146486 C 150.423814 295.968189 148.566068 295.738127 146.708323 295.462054 C 144.856329 295.18598 143.015838 294.863894 141.175347 294.501548 C 139.340608 294.133449 137.517371 293.72509 135.699887 293.270719 C 133.882402 292.816348 132.07642 292.315965 130.287693 291.77532 C 128.493215 291.228925 126.715991 290.642268 124.95027 290.0096 C 123.1903 289.382682 121.441834 288.704001 119.710622 287.990811 C 117.985162 287.271869 116.271205 286.512667 114.580254 285.713204 C 112.883552 284.91374 111.215607 284.074016 109.564916 283.18828 C 107.908475 282.308296 106.280791 281.382299 104.676113 280.421792 C 103.071435 279.461286 101.489763 278.454768 99.931097 277.419492 C 98.372431 276.378464 96.842523 275.297176 95.341373 274.181378 C 93.834471 273.065581 92.362078 271.915274 90.912692 270.730458 C 89.463305 269.53989 88.048428 268.314814 86.662308 267.060979 C 85.270437 265.801393 83.918827 264.51305 82.590222 263.184445 C 81.267369 261.861592 79.979026 260.509982 78.71944 259.118111 C 77.465606 257.731991 76.240529 256.317114 75.049961 254.867727 C 73.865145 253.418341 72.714838 251.945948 71.599041 250.439046 C 70.483243 248.937896 69.401955 247.407988 68.360927 245.849322 C 67.325651 244.290656 66.319133 242.708984 65.358627 241.104306 C 64.39812 239.499628 63.472123 237.866193 62.592139 236.215503 C 61.706403 234.564812 60.866679 232.891116 60.067215 231.200165 C 59.267752 229.509214 58.50855 227.795257 57.789608 226.064045 C 57.070666 224.338585 56.397737 222.590119 55.77082 220.824398 C 55.138151 219.064428 54.551494 217.287204 54.005099 215.492726 C 53.464454 213.703999 52.964071 211.898017 52.5097 210.080532 C 52.055329 208.263048 51.641218 206.439811 51.278872 204.605072 C 50.910773 202.764581 50.594439 200.918339 50.318365 199.066345 C 50.042292 197.214351 49.81223 195.356605 49.628181 193.493108 C 49.449884 191.629611 49.311847 189.766114 49.219822 187.896866 C 49.127798 186.021866 49.081786 184.152617 49.081786 182.277617 C 49.081786 180.408369 49.127798 178.533369 49.219822 176.66412 C 49.311847 174.794872 49.449884 172.925623 49.628181 171.062126 C 49.81223 169.198629 50.042292 167.340884 50.318365 165.48889 C 50.594439 163.636896 50.910773 161.796405 51.278872 159.955914 C 51.641218 158.121175 52.055329 156.292187 52.5097 154.480454 C 52.964071 152.662969 53.464454 150.856987 54.005099 149.06826 C 54.551494 147.273782 55.138151 145.496558 55.77082 143.730837 C 56.397737 141.970867 57.070666 140.222401 57.789608 138.491189 C 58.50855 136.765729 59.267752 135.051772 60.067215 133.360821 C 60.866679 131.664119 61.706403 129.996174 62.592139 128.345484 C 63.472123 126.689042 64.39812 125.061358 65.358627 123.45668 C 66.319133 121.852002 67.325651 120.27033 68.360927 118.711664 C 69.401955 117.152999 70.483243 115.62309 71.599041 114.12194 C 72.714838 112.615038 73.865145 111.142646 75.049961 109.693259 C 76.240529 108.243872 77.465606 106.828995 78.71944 105.442875 C 79.979026 104.051004 81.267369 102.699394 82.590222 101.370789 C 83.918827 100.047937 85.270437 98.759593 86.662308 97.500007 C 88.048428 96.240421 89.463305 95.021096 90.912692 93.830528 C 92.362078 92.645712 93.834471 91.489654 95.341373 90.379608 C 96.842523 89.26381 98.372431 88.182522 99.931097 87.141494 C 101.489763 86.100467 103.071435 85.0997 104.676113 84.139194 C 106.280791 83.178688 107.908475 82.252691 109.564916 81.372706 C 111.215607 80.48697 112.883552 79.647246 114.580254 78.847782 C 116.271205 78.042568 117.985162 77.289117 119.710622 76.570175 C 121.441834 75.851233 123.1903 75.178304 124.95027 74.551387 C 126.715991 73.918718 128.493215 73.332061 130.287693 72.785666 C 132.07642 72.245022 133.882402 71.744638 135.699887 71.290267 C 137.517371 70.835896 139.340608 70.421785 141.175347 70.059439 C 143.015838 69.69134 144.856329 69.375006 146.708323 69.098932 C 148.566068 68.822859 150.423814 68.592797 152.287311 68.408748 C 154.150808 68.224699 156.014305 68.092414 157.883553 68.000389 C 159.758553 67.908365 161.627802 67.862353 163.502802 67.862353 C 165.37205 67.862353 167.241299 67.908365 169.116299 68.000389 C 170.985547 68.092414 172.849044 68.224699 174.712541 68.408748 C 176.576038 68.592797 178.433784 68.822859 180.291529 69.098932 C 182.143523 69.375006 183.984014 69.69134 185.824505 70.059439 C 187.659244 70.421785 189.482481 70.835896 191.299965 71.290267 C 193.11745 71.744638 194.923432 72.245022 196.712159 72.785666 C 198.506637 73.332061 200.283861 73.918718 202.049582 74.551387 C 203.809552 75.178304 205.558018 75.851233 207.28923 76.570175 C 209.01469 77.289117 210.728647 78.042568 212.419598 78.847782 C 214.1163 79.647246 215.784245 80.48697 217.434935 81.372706 C 219.091377 82.252691 220.719061 83.178688 222.323739 84.139194 C 223.928417 85.0997 225.510089 86.100467 227.068755 87.141494 C 228.627421 88.182522 230.157329 89.26381 231.658479 90.379608 C 233.165381 91.489654 234.637773 92.645712 236.08716 93.830528 C 237.536547 95.021096 238.951424 96.240421 240.337544 97.500007 C 241.729415 98.759593 243.081025 100.047937 244.40963 101.370789 C 245.732482 102.699394 247.020826 104.051004 248.280412 105.442875 C 249.539998 106.828995 250.759323 108.243872 251.949891 109.693259 C 253.134707 111.142646 254.285013 112.615038 255.400811 114.12194 C 256.516609 115.62309 257.597897 117.152999 258.638925 118.711664 C 259.674201 120.27033 260.680719 121.852002 261.641225 123.45668 C 262.601732 125.061358 263.527728 126.689042 264.407713 128.345484 C 265.293449 129.996174 266.133173 131.664119 266.932637 133.360821 C 267.737851 135.051772 268.491302 136.765729 269.210244 138.491189 C 269.929186 140.222401 270.602115 141.970867 271.229032 143.730837 C 271.861701 145.496558 272.448358 147.273782 272.994753 149.06826 C 273.535398 150.856987 274.035781 152.662969 274.490152 154.480454 C 274.944523 156.292187 275.358634 158.121175 275.72098 159.955914 C 276.089079 161.796405 276.405413 163.636896 276.681487 165.48889 C 276.95756 167.340884 277.187622 169.198629 277.371671 171.062126 C 277.549968 172.925623 277.688005 174.794872 277.78003 176.66412 C 277.872054 178.533369 277.918066 180.408369 277.918066 182.277617 Z M 277.918066 182.277617 " stroke="#ffffff" stroke-width="8" stroke-opacity="1" stroke-miterlimit="10"/></g><path fill="#ffffff" d="M 296.007812 107.703125 C 283.582031 120.699219 210.066406 143.8125 177.425781 144.972656 C 167.964844 145.585938 159.90625 143.542969 153.949219 139.695312 C 173.582031 113.425781 191.25 102.738281 204.011719 98.621094 C 210.714844 96.441406 216.09375 96.066406 219.734375 96.203125 C 222.488281 96.304688 223.8125 96.609375 224.460938 96.78125 C 233.988281 102.839844 241.988281 110.765625 248.113281 119.988281 L 254.070312 94.980469 C 256.183594 85.894531 246.648438 78.273438 237.464844 78.273438 L 127.339844 78.273438 C 118.148438 78.273438 112.90625 85.894531 110.765625 94.84375 L 84.488281 204.972656 C 82.34375 213.890625 91.871094 221.542969 101.0625 221.542969 L 126.992188 221.542969 C 114.984375 210.148438 106.78125 195.273438 103.617188 178.972656 C 104.5 178.082031 105.863281 176.894531 107.730469 175.976562 C 109.367188 175.164062 111.277344 174.546875 113.519531 174.652344 C 115.765625 174.75 118.347656 175.535156 121.417969 177.507812 C 123.488281 178.871094 125.632812 180.367188 127.78125 182.003906 C 124.988281 195.105469 125.53125 206.8125 127.542969 216.503906 C 127.914062 218.277344 128.324219 219.941406 128.765625 221.578125 L 134.144531 221.578125 C 133.566406 219.667969 133.058594 217.632812 132.609375 215.484375 C 130.878906 207.015625 130.257812 196.9375 132.304688 185.566406 C 142.449219 193.875 152.589844 204.695312 159.386719 217.082031 C 164.101562 224.289062 168.699219 235.96875 169.71875 237.429688 L 175.070312 237.722656 C 174.132812 234.671875 167.972656 220.882812 163.910156 214.628906 C 156.222656 200.570312 144.753906 188.765625 133.527344 179.953125 C 134.851562 174.707031 136.75 169.191406 139.375 163.515625 C 143.082031 166.101562 147.199219 168.757812 151.796875 171.414062 C 182.222656 189.113281 219.109375 203.84375 241.1875 208.746094 C 241.328125 208.304688 242.871094 207.394531 243.015625 206.921875 L 243.625 203.675781 C 222.421875 199.007812 184.871094 184.652344 154.417969 166.957031 C 149.65625 164.203125 145.4375 161.476562 141.691406 158.824219 C 144.210938 153.960938 147.238281 148.953125 150.878906 143.855469 C 157.921875 148.445312 167.28125 150.792969 177.726562 150.117188 C 203.316406 150.753906 282.726562 128.207031 295.996094 112.875 M 161.058594 87.015625 C 167.796875 85.179688 174.746094 84.261719 181.71875 84.222656 C 192.886719 84.222656 203.90625 86.574219 214.117188 91.136719 C 210.746094 91.441406 206.835938 92.121094 202.339844 93.589844 C 188.457031 98.078125 169.910156 109.515625 149.832031 136.402344 C 147.25 133.953125 145.300781 131.023438 144.082031 127.824219 C 140.101562 117.203125 143.707031 102.4375 161.058594 87.015625 Z M 149.933594 90.898438 C 137.953125 104.746094 135.101562 118.628906 139.246094 129.589844 C 140.839844 133.808594 143.402344 137.488281 146.769531 140.546875 L 146.730469 140.585938 C 143.089844 145.6875 140.027344 150.691406 137.472656 155.589844 C 127.195312 147.765625 120.933594 140.621094 117.125 135.003906 C 114.332031 130.886719 112.871094 127.585938 112.125 125.339844 C 112.125 125.304688 112.125 125.304688 112.125 125.273438 C 120.566406 109.992188 133.871094 97.90625 149.933594 90.898438 Z M 102.121094 163.828125 C 102.15625 152.664062 104.5 141.605469 109.0625 131.425781 C 110.011719 133.367188 111.207031 135.507812 112.84375 137.925781 C 117.097656 144.21875 123.96875 151.949219 135.136719 160.355469 C 132.515625 165.941406 130.570312 171.347656 129.144531 176.554688 C 127.515625 175.367188 125.878906 174.238281 124.28125 173.1875 C 120.574219 170.734375 116.996094 169.714844 113.804688 169.582031 C 110.605469 169.445312 107.746094 170.199219 105.460938 171.320312 C 104.445312 171.828125 103.519531 172.40625 102.707031 172.988281 C 102.324219 169.953125 102.15625 166.890625 102.121094 163.828125 Z M 102.121094 163.828125 " fill-opacity="1" fill-rule="nonzero"/><g fill="#f1f1f0" fill-opacity="1"><g transform="translate(90.293592, 281.929584)"><g><path d="M 20.515625 -32.9375 C 17.515625 -32.9375 15.125 -31.757812 13.34375 -29.40625 C 11.570312 -27.0625 10.6875 -23.71875 10.6875 -19.375 C 10.6875 -15.28125 11.523438 -12.03125 13.203125 -9.625 C 14.890625 -7.226562 17.269531 -6.03125 20.34375 -6.03125 C 22.625 -6.03125 24.503906 -6.648438 25.984375 -7.890625 C 27.472656 -9.140625 28.472656 -10.957031 28.984375 -13.34375 L 37.125 -13.34375 C 36.21875 -8.71875 34.289062 -5.164062 31.34375 -2.6875 C 28.394531 -0.207031 24.675781 1.03125 20.1875 1.03125 C 16.570312 1.03125 13.425781 0.207031 10.75 -1.4375 C 8.070312 -3.082031 6.007812 -5.441406 4.5625 -8.515625 C 3.113281 -11.585938 2.390625 -15.222656 2.390625 -19.421875 C 2.390625 -23.617188 3.140625 -27.265625 4.640625 -30.359375 C 6.140625 -33.453125 8.242188 -35.832031 10.953125 -37.5 C 13.671875 -39.164062 16.800781 -40 20.34375 -40 C 23.425781 -40 26.195312 -39.398438 28.65625 -38.203125 C 31.113281 -37.003906 33.070312 -35.363281 34.53125 -33.28125 C 36 -31.207031 36.863281 -28.847656 37.125 -26.203125 L 28.984375 -26.203125 C 27.929688 -30.691406 25.109375 -32.9375 20.515625 -32.9375 Z M 20.515625 -32.9375 "/></g></g></g><g fill="#f1f1f0" fill-opacity="1"><g transform="translate(126.377393, 281.929584)"><g><path d="M 31.359375 -14.4375 C 31.359375 -11.320312 30.742188 -8.625 29.515625 -6.34375 C 28.285156 -4.070312 26.550781 -2.316406 24.3125 -1.078125 C 22.070312 0.148438 19.503906 0.765625 16.609375 0.765625 C 13.710938 0.765625 11.140625 0.148438 8.890625 -1.078125 C 6.648438 -2.316406 4.914062 -4.070312 3.6875 -6.34375 C 2.457031 -8.625 1.84375 -11.320312 1.84375 -14.4375 C 1.84375 -17.539062 2.46875 -20.242188 3.71875 -22.546875 C 4.96875 -24.847656 6.710938 -26.601562 8.953125 -27.8125 C 11.191406 -29.019531 13.742188 -29.625 16.609375 -29.625 C 19.503906 -29.625 22.070312 -29.007812 24.3125 -27.78125 C 26.550781 -26.550781 28.285156 -24.796875 29.515625 -22.515625 C 30.742188 -20.234375 31.359375 -17.539062 31.359375 -14.4375 Z M 16.609375 -5.640625 C 18.921875 -5.640625 20.65625 -6.40625 21.8125 -7.9375 C 22.96875 -9.476562 23.546875 -11.644531 23.546875 -14.4375 C 23.546875 -17.21875 22.957031 -19.375 21.78125 -20.90625 C 20.613281 -22.445312 18.867188 -23.21875 16.546875 -23.21875 C 14.335938 -23.21875 12.632812 -22.457031 11.4375 -20.9375 C 10.25 -19.425781 9.65625 -17.257812 9.65625 -14.4375 C 9.65625 -11.570312 10.242188 -9.390625 11.421875 -7.890625 C 12.597656 -6.390625 14.328125 -5.640625 16.609375 -5.640625 Z M 16.609375 -5.640625 "/></g></g></g><g fill="#f1f1f0" fill-opacity="1"><g transform="translate(156.438115, 281.929584)"><g><path d="M 16.109375 -5.640625 C 17.847656 -5.640625 19.257812 -6.226562 20.34375 -7.40625 C 21.4375 -8.582031 21.984375 -10.128906 21.984375 -12.046875 L 21.984375 -28.875 L 29.578125 -28.875 L 29.578125 0 L 22.296875 0 L 22.296875 -4.0625 L 22.1875 -4.0625 C 20.3125 -0.84375 17.382812 0.765625 13.40625 0.765625 C 10.289062 0.765625 7.875 -0.15625 6.15625 -2 C 4.4375 -3.851562 3.578125 -6.40625 3.578125 -9.65625 L 3.578125 -28.875 L 11.171875 -28.875 L 11.171875 -10.796875 C 11.171875 -9.128906 11.585938 -7.851562 12.421875 -6.96875 C 13.253906 -6.082031 14.484375 -5.640625 16.109375 -5.640625 Z M 16.109375 -5.640625 "/></g></g></g><g fill="#f1f1f0" fill-opacity="1"><g transform="translate(186.498836, 281.929584)"><g><path d="M 20.234375 -29.515625 L 20.234375 -21.8125 C 19.660156 -21.882812 18.972656 -21.921875 18.171875 -21.921875 C 13.429688 -21.921875 11.0625 -19.675781 11.0625 -15.1875 L 11.0625 0 L 3.46875 0 L 3.46875 -28.875 L 10.75 -28.875 L 10.75 -23.875 L 10.859375 -23.875 C 11.941406 -26.007812 13.097656 -27.5 14.328125 -28.34375 C 15.554688 -29.195312 17.039062 -29.625 18.78125 -29.625 C 18.957031 -29.625 19.441406 -29.585938 20.234375 -29.515625 Z M 20.234375 -29.515625 "/></g></g></g><g fill="#f1f1f0" fill-opacity="1"><g transform="translate(204.513413, 281.929584)"><g><path d="M 16.765625 -28.875 L 16.765625 -23.4375 L 12.046875 -23.4375 L 12.046875 -7.328125 C 12.046875 -6.566406 12.253906 -6.054688 12.671875 -5.796875 C 13.085938 -5.546875 13.910156 -5.421875 15.140625 -5.421875 C 15.429688 -5.421875 15.972656 -5.457031 16.765625 -5.53125 L 16.765625 0.21875 C 14.742188 0.289062 13.390625 0.328125 12.703125 0.328125 C 10.378906 0.328125 8.617188 0.0820312 7.421875 -0.40625 C 6.234375 -0.894531 5.441406 -1.582031 5.046875 -2.46875 C 4.648438 -3.351562 4.453125 -4.519531 4.453125 -5.96875 L 4.453125 -23.4375 L 0.546875 -23.4375 L 0.546875 -28.875 L 4.453125 -28.875 L 4.453125 -36.6875 L 12.046875 -36.6875 L 12.046875 -28.875 Z M 16.765625 -28.875 "/></g></g></g><g fill="#f1f1f0" fill-opacity="1"><g transform="translate(219.489323, 281.929584)"><g><path d="M 3.46875 0 L 3.46875 -38.96875 L 11.609375 -38.96875 L 11.609375 0 Z M 3.46875 0 "/></g></g></g><g fill="#f1f1f0" fill-opacity="1"><g transform="translate(231.480828, 281.929584)"><g><path d="M 35.765625 -5.59375 L 40 -1.578125 L 35.703125 2.828125 L 31.09375 -1.578125 C 28.050781 0.160156 24.722656 1.03125 21.109375 1.03125 C 17.523438 1.03125 14.320312 0.265625 11.5 -1.265625 C 8.675781 -2.804688 6.453125 -5.113281 4.828125 -8.1875 C 3.203125 -11.269531 2.390625 -15.035156 2.390625 -19.484375 C 2.390625 -23.898438 3.191406 -27.644531 4.796875 -30.71875 C 6.410156 -33.789062 8.628906 -36.101562 11.453125 -37.65625 C 14.273438 -39.21875 17.492188 -40 21.109375 -40 C 24.691406 -40 27.898438 -39.226562 30.734375 -37.6875 C 33.578125 -36.144531 35.800781 -33.828125 37.40625 -30.734375 C 39.019531 -27.648438 39.828125 -23.898438 39.828125 -19.484375 C 39.828125 -13.660156 38.472656 -9.03125 35.765625 -5.59375 Z M 25.5 -6.890625 L 21.59375 -10.578125 L 25.78125 -14.984375 L 29.90625 -11.125 C 30.375 -11.914062 30.785156 -13.007812 31.140625 -14.40625 C 31.503906 -15.800781 31.6875 -17.492188 31.6875 -19.484375 C 31.6875 -23.828125 30.71875 -27.179688 28.78125 -29.546875 C 26.851562 -31.921875 24.28125 -33.109375 21.0625 -33.109375 C 17.90625 -33.109375 15.359375 -31.921875 13.421875 -29.546875 C 11.492188 -27.179688 10.53125 -23.828125 10.53125 -19.484375 C 10.53125 -15.140625 11.492188 -11.78125 13.421875 -9.40625 C 15.359375 -7.039062 17.921875 -5.859375 21.109375 -5.859375 C 22.804688 -5.859375 24.269531 -6.203125 25.5 -6.890625 Z M 25.5 -6.890625 "/></g></g></g></svg>