<svg xmlns="http://www.w3.org/2000/svg" xmlns:xlink="http://www.w3.org/1999/xlink" width="500" zoomAndPan="magnify" viewBox="0 0 375 374.999991" height="500" preserveAspectRatio="xMidYMid meet" version="1.0"><defs><g/><clipPath id="3075957edc"><path d="M 83.378906 73.351562 L 303.128906 73.351562 L 303.128906 243.601562 L 83.378906 243.601562 Z M 83.378906 73.351562 " clip-rule="nonzero"/></clipPath></defs><path fill="#010101" d="M 302.015625 108.816406 C 301.535156 107.632812 301.488281 106.34375 278.511719 107.511719 C 277.839844 107.546875 277.1875 107.757812 276.636719 108.144531 C 276.261719 108.410156 275.902344 108.722656 275.820312 109 C 275.636719 109.535156 275.910156 110.699219 276.535156 111.144531 C 277.792969 112.042969 281.472656 111.59375 284.433594 111.59375 C 287.566406 111.519531 295.679688 111.125 296.753906 110.996094 C 295.660156 115.023438 292.257812 123.773438 292.320312 125.441406 C 292.324219 125.503906 292.332031 125.558594 292.339844 125.613281 C 292.332031 126.039062 292.449219 126.535156 292.652344 126.882812 C 292.671875 126.910156 292.691406 126.945312 292.710938 126.96875 C 292.734375 126.996094 292.746094 127.023438 292.765625 127.050781 C 292.816406 127.113281 292.867188 127.167969 292.9375 127.222656 C 292.945312 127.230469 292.945312 127.234375 292.949219 127.234375 C 293.304688 127.589844 294.199219 127.949219 294.742188 127.773438 C 294.757812 127.765625 294.769531 127.757812 294.785156 127.75 C 295.078125 127.710938 295.375 127.589844 295.726562 127.230469 C 296.535156 126.421875 298.585938 121.15625 299.308594 119.085938 C 300.203125 116.84375 301.304688 113.449219 301.746094 111.582031 C 302.125 109.984375 302.144531 109.148438 302.015625 108.816406 Z M 302.015625 108.816406 " fill-opacity="1" fill-rule="nonzero"/><path fill="#ed7623" d="M 259.351562 162.070312 C 259.351562 163.339844 259.320312 164.613281 259.257812 165.882812 C 259.195312 167.152344 259.101562 168.421875 258.976562 169.6875 C 258.851562 170.953125 258.699219 172.214844 258.511719 173.472656 C 258.324219 174.730469 258.105469 175.984375 257.859375 177.230469 C 257.609375 178.476562 257.332031 179.71875 257.023438 180.953125 C 256.714844 182.1875 256.375 183.410156 256.007812 184.628906 C 255.636719 185.84375 255.238281 187.050781 254.808594 188.25 C 254.382812 189.445312 253.921875 190.632812 253.4375 191.808594 C 252.949219 192.984375 252.433594 194.144531 251.890625 195.296875 C 251.347656 196.445312 250.777344 197.582031 250.175781 198.703125 C 249.578125 199.824219 248.949219 200.929688 248.296875 202.019531 C 247.640625 203.113281 246.960938 204.1875 246.253906 205.242188 C 245.550781 206.300781 244.816406 207.339844 244.058594 208.363281 C 243.300781 209.382812 242.519531 210.386719 241.710938 211.367188 C 240.90625 212.351562 240.074219 213.316406 239.222656 214.257812 C 238.367188 215.199219 237.492188 216.121094 236.589844 217.019531 C 235.691406 217.917969 234.769531 218.796875 233.828125 219.648438 C 232.886719 220.503906 231.925781 221.332031 230.941406 222.140625 C 229.957031 222.949219 228.957031 223.730469 227.933594 224.488281 C 226.914062 225.246094 225.871094 225.976562 224.816406 226.683594 C 223.757812 227.390625 222.683594 228.070312 221.59375 228.722656 C 220.503906 229.378906 219.394531 230.003906 218.273438 230.605469 C 217.152344 231.203125 216.015625 231.773438 214.867188 232.320312 C 213.71875 232.863281 212.554688 233.378906 211.378906 233.863281 C 210.207031 234.351562 209.019531 234.808594 207.820312 235.238281 C 206.625 235.664062 205.417969 236.066406 204.199219 236.433594 C 202.984375 236.804688 201.757812 237.140625 200.523438 237.453125 C 199.289062 237.761719 198.050781 238.039062 196.800781 238.285156 C 195.554688 238.535156 194.300781 238.753906 193.042969 238.9375 C 191.785156 239.125 190.523438 239.28125 189.257812 239.40625 C 187.992188 239.53125 186.726562 239.625 185.453125 239.6875 C 184.183594 239.75 182.914062 239.78125 181.640625 239.78125 C 180.371094 239.78125 179.097656 239.75 177.828125 239.6875 C 176.558594 239.625 175.289062 239.53125 174.023438 239.40625 C 172.757812 239.28125 171.496094 239.125 170.238281 238.9375 C 168.980469 238.753906 167.730469 238.535156 166.480469 238.285156 C 165.234375 238.039062 163.992188 237.761719 162.761719 237.453125 C 161.527344 237.140625 160.300781 236.804688 159.082031 236.433594 C 157.867188 236.066406 156.660156 235.664062 155.460938 235.238281 C 154.265625 234.808594 153.078125 234.351562 151.902344 233.863281 C 150.726562 233.378906 149.566406 232.863281 148.417969 232.320312 C 147.265625 231.773438 146.132812 231.203125 145.007812 230.605469 C 143.886719 230.003906 142.78125 229.378906 141.691406 228.722656 C 140.601562 228.070312 139.527344 227.390625 138.46875 226.683594 C 137.410156 225.976562 136.371094 225.246094 135.351562 224.488281 C 134.328125 223.730469 133.324219 222.949219 132.34375 222.140625 C 131.359375 221.332031 130.398438 220.503906 129.453125 219.648438 C 128.511719 218.796875 127.589844 217.917969 126.691406 217.019531 C 125.792969 216.121094 124.917969 215.199219 124.0625 214.257812 C 123.207031 213.316406 122.378906 212.351562 121.570312 211.367188 C 120.765625 210.386719 119.980469 209.382812 119.222656 208.363281 C 118.46875 207.339844 117.734375 206.300781 117.027344 205.242188 C 116.320312 204.1875 115.640625 203.113281 114.988281 202.019531 C 114.332031 200.929688 113.707031 199.824219 113.109375 198.703125 C 112.507812 197.582031 111.9375 196.445312 111.394531 195.296875 C 110.847656 194.144531 110.332031 192.984375 109.847656 191.808594 C 109.359375 190.632812 108.902344 189.445312 108.472656 188.25 C 108.046875 187.050781 107.648438 185.84375 107.277344 184.628906 C 106.910156 183.410156 106.570312 182.1875 106.261719 180.953125 C 105.953125 179.71875 105.671875 178.476562 105.425781 177.230469 C 105.175781 175.984375 104.960938 174.730469 104.773438 173.472656 C 104.585938 172.214844 104.429688 170.953125 104.304688 169.6875 C 104.179688 168.421875 104.085938 167.152344 104.023438 165.882812 C 103.960938 164.613281 103.929688 163.339844 103.929688 162.070312 C 103.929688 160.796875 103.960938 159.527344 104.023438 158.257812 C 104.085938 156.988281 104.179688 155.71875 104.304688 154.453125 C 104.429688 153.1875 104.585938 151.925781 104.773438 150.667969 C 104.960938 149.410156 105.175781 148.15625 105.425781 146.910156 C 105.671875 145.660156 105.953125 144.421875 106.261719 143.1875 C 106.570312 141.953125 106.910156 140.730469 107.277344 139.511719 C 107.648438 138.292969 108.046875 137.085938 108.472656 135.890625 C 108.902344 134.691406 109.359375 133.507812 109.847656 132.332031 C 110.332031 131.15625 110.847656 129.996094 111.394531 128.84375 C 111.9375 127.695312 112.507812 126.558594 113.109375 125.4375 C 113.707031 124.316406 114.332031 123.210938 114.988281 122.117188 C 115.640625 121.027344 116.320312 119.953125 117.027344 118.894531 C 117.734375 117.839844 118.46875 116.800781 119.222656 115.777344 C 119.980469 114.757812 120.765625 113.753906 121.570312 112.769531 C 122.378906 111.789062 123.207031 110.824219 124.0625 109.882812 C 124.917969 108.941406 125.792969 108.019531 126.691406 107.121094 C 127.589844 106.222656 128.511719 105.34375 129.453125 104.492188 C 130.398438 103.636719 131.359375 102.804688 132.34375 102 C 133.324219 101.191406 134.328125 100.410156 135.351562 99.652344 C 136.371094 98.894531 137.410156 98.164062 138.46875 97.457031 C 139.527344 96.75 140.601562 96.070312 141.691406 95.414062 C 142.78125 94.761719 143.886719 94.136719 145.007812 93.535156 C 146.132812 92.9375 147.265625 92.363281 148.417969 91.820312 C 149.566406 91.277344 150.726562 90.761719 151.902344 90.273438 C 153.078125 89.789062 154.265625 89.332031 155.460938 88.902344 C 156.660156 88.472656 157.867188 88.074219 159.082031 87.707031 C 160.300781 87.335938 161.527344 86.996094 162.761719 86.6875 C 163.992188 86.378906 165.234375 86.101562 166.480469 85.851562 C 167.730469 85.605469 168.980469 85.386719 170.238281 85.199219 C 171.496094 85.015625 172.757812 84.859375 174.023438 84.734375 C 175.289062 84.609375 176.558594 84.515625 177.828125 84.453125 C 179.097656 84.390625 180.371094 84.359375 181.640625 84.359375 C 182.914062 84.359375 184.183594 84.390625 185.453125 84.453125 C 186.726562 84.515625 187.992188 84.609375 189.257812 84.734375 C 190.523438 84.859375 191.785156 85.015625 193.042969 85.199219 C 194.300781 85.386719 195.554688 85.605469 196.800781 85.851562 C 198.050781 86.101562 199.289062 86.378906 200.523438 86.6875 C 201.757812 86.996094 202.984375 87.335938 204.199219 87.707031 C 205.417969 88.074219 206.625 88.472656 207.820312 88.902344 C 209.019531 89.332031 210.207031 89.789062 211.378906 90.273438 C 212.554688 90.761719 213.71875 91.277344 214.867188 91.820312 C 216.015625 92.363281 217.152344 92.9375 218.273438 93.535156 C 219.394531 94.136719 220.503906 94.761719 221.59375 95.414062 C 222.683594 96.070312 223.757812 96.75 224.816406 97.457031 C 225.871094 98.164062 226.914062 98.894531 227.933594 99.652344 C 228.957031 100.410156 229.957031 101.191406 230.941406 102 C 231.921875 102.804688 232.886719 103.636719 233.828125 104.492188 C 234.769531 105.34375 235.691406 106.222656 236.589844 107.121094 C 237.492188 108.019531 238.367188 108.941406 239.222656 109.882812 C 240.074219 110.824219 240.90625 111.789062 241.710938 112.769531 C 242.519531 113.753906 243.300781 114.757812 244.058594 115.777344 C 244.816406 116.800781 245.550781 117.839844 246.253906 118.894531 C 246.960938 119.953125 247.640625 121.027344 248.296875 122.117188 C 248.949219 123.210938 249.578125 124.316406 250.175781 125.4375 C 250.777344 126.558594 251.347656 127.695312 251.890625 128.84375 C 252.433594 129.996094 252.949219 131.15625 253.4375 132.332031 C 253.921875 133.507812 254.382812 134.691406 254.808594 135.890625 C 255.238281 137.085938 255.636719 138.292969 256.007812 139.511719 C 256.375 140.730469 256.714844 141.953125 257.023438 143.1875 C 257.332031 144.421875 257.609375 145.660156 257.859375 146.910156 C 258.105469 148.15625 258.324219 149.410156 258.511719 150.667969 C 258.699219 151.925781 258.851562 153.1875 258.976562 154.453125 C 259.101562 155.71875 259.195312 156.988281 259.257812 158.257812 C 259.320312 159.527344 259.351562 160.796875 259.351562 162.070312 Z M 259.351562 162.070312 " fill-opacity="1" fill-rule="nonzero"/><g clip-path="url(#3075957edc)"><path stroke-linecap="butt" transform="matrix(0.679167, 0, 0, 0.679167, 70.598129, 38.271403)" fill="none" stroke-linejoin="miter" d="M 277.919176 182.28061 C 277.919176 184.149858 277.873164 186.024858 277.781139 187.894107 C 277.689115 189.763355 277.551078 191.632604 277.367029 193.496101 C 277.18298 195.359598 276.95867 197.217343 276.682596 199.069337 C 276.406522 200.921331 276.084437 202.767574 275.72209 204.602313 C 275.353992 206.437052 274.945633 208.26604 274.491262 210.083525 C 274.03689 211.90101 273.536507 213.70124 272.995863 215.495718 C 272.449467 217.284445 271.862811 219.061669 271.230142 220.82739 C 270.603225 222.58736 269.924544 224.335826 269.211354 226.067038 C 268.492412 227.798249 267.733209 229.506455 266.933746 231.203157 C 266.134283 232.894108 265.294559 234.567805 264.408823 236.218495 C 263.528838 237.869185 262.602841 239.496869 261.642335 241.101547 C 260.676077 242.711977 259.67531 244.293649 258.634283 245.846563 C 257.599006 247.405229 256.517718 248.935137 255.401921 250.442038 C 254.286123 251.943189 253.135816 253.421333 251.945249 254.864968 C 250.760433 256.314355 249.535356 257.734984 248.281522 259.121103 C 247.021936 260.507223 245.733592 261.864585 244.404988 263.187438 C 243.082135 264.51029 241.724773 265.804386 240.338653 267.05822 C 238.952533 268.317806 237.537656 269.537131 236.08827 270.727699 C 234.638883 271.918266 233.16649 273.068573 231.659588 274.184371 C 230.158438 275.300168 228.622779 276.375705 227.069864 277.416733 C 225.511199 278.45776 223.929527 279.458527 222.324849 280.419033 C 220.720171 281.385291 219.086735 282.305537 217.436045 283.191273 C 215.785355 284.071257 214.111658 284.910981 212.420707 285.716196 C 210.729756 286.515659 209.015799 287.274862 207.284588 287.988052 C 205.559127 288.706994 203.810661 289.379923 202.04494 290.012592 C 200.284971 290.639509 198.507747 291.231917 196.713268 291.772561 C 194.924541 292.318957 193.11856 292.813589 191.301075 293.273712 C 189.48359 293.728083 187.660354 294.136442 185.819863 294.498788 C 183.985124 294.866887 182.138881 295.188973 180.286887 295.459295 C 178.434893 295.735368 176.577148 295.96543 174.713651 296.149479 C 172.850154 296.333528 170.986657 296.471565 169.111657 296.563589 C 167.242408 296.655614 165.37316 296.701626 163.49816 296.701626 C 161.628911 296.701626 159.753911 296.655614 157.884663 296.563589 C 156.015414 296.471565 154.146166 296.333528 152.282669 296.149479 C 150.419172 295.96543 148.561426 295.735368 146.709432 295.459295 C 144.857438 295.188973 143.016947 294.866887 141.176456 294.498788 C 139.341717 294.136442 137.512729 293.728083 135.700996 293.273712 C 133.883511 292.813589 132.07753 292.318957 130.283051 291.772561 C 128.494324 291.231917 126.7171 290.639509 124.951379 290.012592 C 123.19141 289.379923 121.442944 288.706994 119.711732 287.988052 C 117.98052 287.274862 116.272315 286.515659 114.581364 285.716196 C 112.884661 284.910981 111.216716 284.071257 109.560274 283.191273 C 107.909584 282.305537 106.2819 281.385291 104.677222 280.419033 C 103.072544 279.458527 101.490872 278.45776 99.932207 277.416733 C 98.373541 276.375705 96.843633 275.300168 95.342483 274.184371 C 93.835581 273.068573 92.357436 271.918266 90.913801 270.727699 C 89.464415 269.537131 88.049537 268.317806 86.657666 267.05822 C 85.271547 265.804386 83.914185 264.51029 82.591332 263.187438 C 81.268479 261.864585 79.980135 260.507223 78.720549 259.121103 C 77.460964 257.734984 76.241638 256.314355 75.051071 254.864968 C 73.866255 253.421333 72.710196 251.943189 71.594399 250.442038 C 70.484353 248.935137 69.403064 247.405229 68.362037 245.846563 C 67.321009 244.293649 66.320242 242.711977 65.359736 241.101547 C 64.393478 239.496869 63.473233 237.869185 62.593248 236.218495 C 61.707512 234.567805 60.867788 232.894108 60.068325 231.203157 C 59.26311 229.506455 58.503908 227.798249 57.790717 226.067038 C 57.071776 224.335826 56.398846 222.58736 55.766177 220.82739 C 55.13926 219.061669 54.552604 217.284445 54.006208 215.495718 C 53.465564 213.70124 52.96518 211.90101 52.510809 210.083525 C 52.056438 208.26604 51.642328 206.437052 51.279981 204.602313 C 50.911883 202.767574 50.595548 200.921331 50.319475 199.069337 C 50.043401 197.217343 49.81334 195.359598 49.629291 193.496101 C 49.445242 191.632604 49.307205 189.763355 49.21518 187.894107 C 49.123156 186.024858 49.077144 184.149858 49.077144 182.28061 C 49.077144 180.40561 49.123156 178.536361 49.21518 176.667113 C 49.307205 174.797864 49.445242 172.928616 49.629291 171.065119 C 49.81334 169.201622 50.043401 167.343876 50.319475 165.491882 C 50.595548 163.639888 50.911883 161.793646 51.279981 159.958907 C 51.642328 158.118416 52.056438 156.295179 52.510809 154.477695 C 52.96518 152.66021 53.465564 150.85998 54.006208 149.065501 C 54.552604 147.271023 55.13926 145.493799 55.766177 143.733829 C 56.398846 141.968108 57.071776 140.225394 57.790717 138.494182 C 58.503908 136.76297 59.26311 135.054765 60.068325 133.358062 C 60.867788 131.667111 61.707512 129.993415 62.593248 128.342724 C 63.473233 126.692034 64.393478 125.06435 65.359736 123.453921 C 66.320242 121.849243 67.321009 120.267571 68.362037 118.708905 C 69.403064 117.155991 70.484353 115.626083 71.594399 114.119181 C 72.710196 112.618031 73.866255 111.139886 75.051071 109.6905 C 76.241638 108.246865 77.460964 106.826236 78.720549 105.440116 C 79.980135 104.053997 81.268479 102.696635 82.591332 101.373782 C 83.914185 100.050929 85.271547 98.756834 86.657666 97.503 C 88.049537 96.243414 89.464415 95.018337 90.913801 93.833521 C 92.357436 92.642953 93.835581 91.492647 95.342483 90.376849 C 96.843633 89.261051 98.373541 88.185515 99.932207 87.144487 C 101.490872 86.103459 103.072544 85.102692 104.677222 84.136435 C 106.2819 83.175928 107.909584 82.255683 109.560274 81.369947 C 111.216716 80.489962 112.884661 79.644487 114.581364 78.845023 C 116.272315 78.04556 117.98052 77.286358 119.711732 76.567416 C 121.442944 75.854226 123.19141 75.181296 124.951379 74.548628 C 126.7171 73.915959 128.494324 73.329302 130.283051 72.788658 C 132.07753 72.242262 133.883511 71.741879 135.700996 71.287508 C 137.512729 70.833137 139.341717 70.424778 141.176456 70.05668 C 143.016947 69.694333 144.857438 69.372247 146.709432 69.096173 C 148.561426 68.825851 150.419172 68.59579 152.282669 68.411741 C 154.146166 68.227692 156.015414 68.089655 157.884663 67.99763 C 159.753911 67.905606 161.628911 67.859594 163.49816 67.859594 C 165.37316 67.859594 167.242408 67.905606 169.111657 67.99763 C 170.986657 68.089655 172.850154 68.227692 174.713651 68.411741 C 176.577148 68.59579 178.434893 68.825851 180.286887 69.096173 C 182.138881 69.372247 183.985124 69.694333 185.819863 70.05668 C 187.660354 70.424778 189.48359 70.833137 191.301075 71.287508 C 193.11856 71.741879 194.924541 72.242262 196.713268 72.788658 C 198.507747 73.329302 200.284971 73.915959 202.04494 74.548628 C 203.810661 75.181296 205.559127 75.854226 207.284588 76.567416 C 209.015799 77.286358 210.729756 78.04556 212.420707 78.845023 C 214.111658 79.644487 215.785355 80.489962 217.436045 81.369947 C 219.086735 82.255683 220.720171 83.175928 222.324849 84.136435 C 223.929527 85.102692 225.511199 86.103459 227.069864 87.144487 C 228.622779 88.185515 230.158438 89.261051 231.659588 90.376849 C 233.16649 91.492647 234.638883 92.642953 236.08827 93.833521 C 237.531905 95.018337 238.952533 96.243414 240.338653 97.503 C 241.724773 98.756834 243.082135 100.050929 244.404988 101.373782 C 245.733592 102.696635 247.021936 104.053997 248.281522 105.440116 C 249.535356 106.826236 250.760433 108.246865 251.945249 109.6905 C 253.135816 111.139886 254.286123 112.618031 255.401921 114.119181 C 256.517718 115.626083 257.599006 117.155991 258.634283 118.708905 C 259.67531 120.267571 260.676077 121.849243 261.642335 123.453921 C 262.602841 125.06435 263.528838 126.692034 264.408823 128.342724 C 265.294559 129.993415 266.134283 131.667111 266.933746 133.358062 C 267.733209 135.054765 268.492412 136.76297 269.211354 138.494182 C 269.924544 140.225394 270.603225 141.968108 271.230142 143.733829 C 271.862811 145.493799 272.449467 147.271023 272.995863 149.065501 C 273.536507 150.85998 274.03689 152.66021 274.491262 154.477695 C 274.945633 156.295179 275.353992 158.118416 275.72209 159.958907 C 276.084437 161.793646 276.406522 163.639888 276.682596 165.491882 C 276.95867 167.343876 277.18298 169.201622 277.367029 171.065119 C 277.551078 172.928616 277.689115 174.797864 277.781139 176.667113 C 277.873164 178.536361 277.919176 180.40561 277.919176 182.28061 Z M 277.919176 182.28061 " stroke="#010101" stroke-width="8" stroke-opacity="1" stroke-miterlimit="10"/></g><path fill="#010101" d="M 296.71875 107.722656 C 284.292969 120.722656 210.777344 143.835938 178.136719 144.996094 C 168.675781 145.605469 160.613281 143.5625 154.660156 139.71875 C 174.292969 113.449219 191.957031 102.757812 204.71875 98.640625 C 211.421875 96.460938 216.800781 96.089844 220.441406 96.226562 C 223.199219 96.328125 224.523438 96.632812 225.167969 96.800781 C 234.699219 102.859375 242.699219 110.785156 248.824219 120.007812 L 254.78125 95.003906 C 256.894531 85.914062 247.359375 78.292969 238.175781 78.292969 L 128.050781 78.292969 C 118.859375 78.292969 113.617188 85.914062 111.476562 94.867188 L 85.199219 204.992188 C 83.054688 213.910156 92.582031 221.566406 101.773438 221.566406 L 127.703125 221.566406 C 115.695312 210.167969 107.492188 195.292969 104.324219 178.996094 C 105.207031 178.105469 106.574219 176.917969 108.441406 176 C 110.078125 175.183594 111.988281 174.566406 114.226562 174.675781 C 116.476562 174.769531 119.058594 175.558594 122.125 177.527344 C 124.199219 178.894531 126.34375 180.386719 128.492188 182.023438 C 125.699219 195.125 126.242188 206.832031 128.253906 216.527344 C 128.625 218.296875 129.035156 219.960938 129.476562 221.597656 L 134.855469 221.597656 C 134.277344 219.691406 133.765625 217.652344 133.320312 215.507812 C 131.585938 207.039062 130.96875 196.957031 133.011719 185.589844 C 143.160156 193.894531 153.300781 204.714844 160.097656 217.101562 C 164.8125 224.308594 169.410156 235.992188 170.429688 237.449219 L 175.78125 237.742188 C 174.84375 234.691406 168.683594 220.90625 164.621094 214.652344 C 156.933594 200.59375 145.460938 188.789062 134.234375 179.972656 C 135.558594 174.730469 137.460938 169.214844 140.082031 163.535156 C 143.792969 166.125 147.90625 168.78125 152.503906 171.4375 C 182.933594 189.132812 219.816406 203.867188 241.898438 208.769531 C 242.039062 208.328125 243.582031 207.417969 243.722656 206.941406 L 244.335938 203.695312 C 223.132812 199.03125 185.582031 184.671875 155.128906 166.980469 C 150.367188 164.222656 146.148438 161.5 142.398438 158.84375 C 144.917969 153.980469 147.949219 148.976562 151.589844 143.875 C 158.632812 148.464844 167.992188 150.816406 178.4375 150.136719 C 204.027344 150.773438 283.433594 128.226562 296.707031 112.898438 M 161.769531 87.035156 C 168.507812 85.203125 175.453125 84.285156 182.429688 84.246094 C 193.59375 84.246094 204.617188 86.59375 214.824219 91.15625 C 211.457031 91.464844 207.546875 92.144531 203.050781 93.609375 C 189.167969 98.097656 170.617188 109.535156 150.542969 136.425781 C 147.960938 133.972656 146.011719 131.046875 144.789062 127.847656 C 140.808594 117.222656 144.417969 102.460938 161.769531 87.035156 Z M 150.644531 90.921875 C 138.664062 104.769531 135.8125 118.652344 139.953125 129.613281 C 141.550781 133.832031 144.109375 137.511719 147.480469 140.566406 L 147.4375 140.609375 C 143.796875 145.707031 140.734375 150.714844 138.183594 155.609375 C 127.90625 147.785156 121.644531 140.640625 117.835938 135.027344 C 115.042969 130.910156 113.582031 127.609375 112.835938 125.359375 C 112.835938 125.328125 112.835938 125.328125 112.835938 125.292969 C 121.277344 110.011719 134.582031 97.929688 150.644531 90.921875 Z M 102.832031 163.847656 C 102.867188 152.683594 105.207031 141.628906 109.773438 131.445312 C 110.722656 133.390625 111.917969 135.527344 113.554688 137.945312 C 117.808594 144.242188 124.679688 151.96875 135.84375 160.378906 C 133.222656 165.960938 131.28125 171.367188 129.855469 176.578125 C 128.226562 175.386719 126.589844 174.261719 124.992188 173.207031 C 121.285156 170.757812 117.707031 169.738281 114.511719 169.601562 C 111.3125 169.464844 108.453125 170.21875 106.171875 171.339844 C 105.152344 171.851562 104.230469 172.425781 103.414062 173.011719 C 103.035156 169.976562 102.867188 166.914062 102.832031 163.847656 Z M 102.832031 163.847656 " fill-opacity="1" fill-rule="nonzero"/><g fill="#000000" fill-opacity="1"><g transform="translate(90.293592, 281.929598)"><g><path d="M 20.515625 -32.9375 C 17.515625 -32.9375 15.125 -31.757812 13.34375 -29.40625 C 11.570312 -27.0625 10.6875 -23.71875 10.6875 -19.375 C 10.6875 -15.28125 11.523438 -12.03125 13.203125 -9.625 C 14.890625 -7.226562 17.269531 -6.03125 20.34375 -6.03125 C 22.625 -6.03125 24.503906 -6.648438 25.984375 -7.890625 C 27.472656 -9.140625 28.472656 -10.957031 28.984375 -13.34375 L 37.125 -13.34375 C 36.21875 -8.71875 34.289062 -5.164062 31.34375 -2.6875 C 28.394531 -0.207031 24.675781 1.03125 20.1875 1.03125 C 16.570312 1.03125 13.425781 0.207031 10.75 -1.4375 C 8.070312 -3.082031 6.007812 -5.441406 4.5625 -8.515625 C 3.113281 -11.585938 2.390625 -15.222656 2.390625 -19.421875 C 2.390625 -23.617188 3.140625 -27.265625 4.640625 -30.359375 C 6.140625 -33.453125 8.242188 -35.832031 10.953125 -37.5 C 13.671875 -39.164062 16.800781 -40 20.34375 -40 C 23.425781 -40 26.195312 -39.398438 28.65625 -38.203125 C 31.113281 -37.003906 33.070312 -35.363281 34.53125 -33.28125 C 36 -31.207031 36.863281 -28.847656 37.125 -26.203125 L 28.984375 -26.203125 C 27.929688 -30.691406 25.109375 -32.9375 20.515625 -32.9375 Z M 20.515625 -32.9375 "/></g></g></g><g fill="#000000" fill-opacity="1"><g transform="translate(126.377393, 281.929598)"><g><path d="M 31.359375 -14.4375 C 31.359375 -11.320312 30.742188 -8.625 29.515625 -6.34375 C 28.285156 -4.070312 26.550781 -2.316406 24.3125 -1.078125 C 22.070312 0.148438 19.503906 0.765625 16.609375 0.765625 C 13.710938 0.765625 11.140625 0.148438 8.890625 -1.078125 C 6.648438 -2.316406 4.914062 -4.070312 3.6875 -6.34375 C 2.457031 -8.625 1.84375 -11.320312 1.84375 -14.4375 C 1.84375 -17.539062 2.46875 -20.242188 3.71875 -22.546875 C 4.96875 -24.847656 6.710938 -26.601562 8.953125 -27.8125 C 11.191406 -29.019531 13.742188 -29.625 16.609375 -29.625 C 19.503906 -29.625 22.070312 -29.007812 24.3125 -27.78125 C 26.550781 -26.550781 28.285156 -24.796875 29.515625 -22.515625 C 30.742188 -20.234375 31.359375 -17.539062 31.359375 -14.4375 Z M 16.609375 -5.640625 C 18.921875 -5.640625 20.65625 -6.40625 21.8125 -7.9375 C 22.96875 -9.476562 23.546875 -11.644531 23.546875 -14.4375 C 23.546875 -17.21875 22.957031 -19.375 21.78125 -20.90625 C 20.613281 -22.445312 18.867188 -23.21875 16.546875 -23.21875 C 14.335938 -23.21875 12.632812 -22.457031 11.4375 -20.9375 C 10.25 -19.425781 9.65625 -17.257812 9.65625 -14.4375 C 9.65625 -11.570312 10.242188 -9.390625 11.421875 -7.890625 C 12.597656 -6.390625 14.328125 -5.640625 16.609375 -5.640625 Z M 16.609375 -5.640625 "/></g></g></g><g fill="#000000" fill-opacity="1"><g transform="translate(156.438115, 281.929598)"><g><path d="M 16.109375 -5.640625 C 17.847656 -5.640625 19.257812 -6.226562 20.34375 -7.40625 C 21.4375 -8.582031 21.984375 -10.128906 21.984375 -12.046875 L 21.984375 -28.875 L 29.578125 -28.875 L 29.578125 0 L 22.296875 0 L 22.296875 -4.0625 L 22.1875 -4.0625 C 20.3125 -0.84375 17.382812 0.765625 13.40625 0.765625 C 10.289062 0.765625 7.875 -0.15625 6.15625 -2 C 4.4375 -3.851562 3.578125 -6.40625 3.578125 -9.65625 L 3.578125 -28.875 L 11.171875 -28.875 L 11.171875 -10.796875 C 11.171875 -9.128906 11.585938 -7.851562 12.421875 -6.96875 C 13.253906 -6.082031 14.484375 -5.640625 16.109375 -5.640625 Z M 16.109375 -5.640625 "/></g></g></g><g fill="#000000" fill-opacity="1"><g transform="translate(186.498836, 281.929598)"><g><path d="M 20.234375 -29.515625 L 20.234375 -21.8125 C 19.660156 -21.882812 18.972656 -21.921875 18.171875 -21.921875 C 13.429688 -21.921875 11.0625 -19.675781 11.0625 -15.1875 L 11.0625 0 L 3.46875 0 L 3.46875 -28.875 L 10.75 -28.875 L 10.75 -23.875 L 10.859375 -23.875 C 11.941406 -26.007812 13.097656 -27.5 14.328125 -28.34375 C 15.554688 -29.195312 17.039062 -29.625 18.78125 -29.625 C 18.957031 -29.625 19.441406 -29.585938 20.234375 -29.515625 Z M 20.234375 -29.515625 "/></g></g></g><g fill="#000000" fill-opacity="1"><g transform="translate(204.513413, 281.929598)"><g><path d="M 16.765625 -28.875 L 16.765625 -23.4375 L 12.046875 -23.4375 L 12.046875 -7.328125 C 12.046875 -6.566406 12.253906 -6.054688 12.671875 -5.796875 C 13.085938 -5.546875 13.910156 -5.421875 15.140625 -5.421875 C 15.429688 -5.421875 15.972656 -5.457031 16.765625 -5.53125 L 16.765625 0.21875 C 14.742188 0.289062 13.390625 0.328125 12.703125 0.328125 C 10.378906 0.328125 8.617188 0.0820312 7.421875 -0.40625 C 6.234375 -0.894531 5.441406 -1.582031 5.046875 -2.46875 C 4.648438 -3.351562 4.453125 -4.519531 4.453125 -5.96875 L 4.453125 -23.4375 L 0.546875 -23.4375 L 0.546875 -28.875 L 4.453125 -28.875 L 4.453125 -36.6875 L 12.046875 -36.6875 L 12.046875 -28.875 Z M 16.765625 -28.875 "/></g></g></g><g fill="#000000" fill-opacity="1"><g transform="translate(219.489323, 281.929598)"><g><path d="M 3.46875 0 L 3.46875 -38.96875 L 11.609375 -38.96875 L 11.609375 0 Z M 3.46875 0 "/></g></g></g><g fill="#000000" fill-opacity="1"><g transform="translate(231.480828, 281.929598)"><g><path d="M 35.765625 -5.59375 L 40 -1.578125 L 35.703125 2.828125 L 31.09375 -1.578125 C 28.050781 0.160156 24.722656 1.03125 21.109375 1.03125 C 17.523438 1.03125 14.320312 0.265625 11.5 -1.265625 C 8.675781 -2.804688 6.453125 -5.113281 4.828125 -8.1875 C 3.203125 -11.269531 2.390625 -15.035156 2.390625 -19.484375 C 2.390625 -23.898438 3.191406 -27.644531 4.796875 -30.71875 C 6.410156 -33.789062 8.628906 -36.101562 11.453125 -37.65625 C 14.273438 -39.21875 17.492188 -40 21.109375 -40 C 24.691406 -40 27.898438 -39.226562 30.734375 -37.6875 C 33.578125 -36.144531 35.800781 -33.828125 37.40625 -30.734375 C 39.019531 -27.648438 39.828125 -23.898438 39.828125 -19.484375 C 39.828125 -13.660156 38.472656 -9.03125 35.765625 -5.59375 Z M 25.5 -6.890625 L 21.59375 -10.578125 L 25.78125 -14.984375 L 29.90625 -11.125 C 30.375 -11.914062 30.785156 -13.007812 31.140625 -14.40625 C 31.503906 -15.800781 31.6875 -17.492188 31.6875 -19.484375 C 31.6875 -23.828125 30.71875 -27.179688 28.78125 -29.546875 C 26.851562 -31.921875 24.28125 -33.109375 21.0625 -33.109375 C 17.90625 -33.109375 15.359375 -31.921875 13.421875 -29.546875 C 11.492188 -27.179688 10.53125 -23.828125 10.53125 -19.484375 C 10.53125 -15.140625 11.492188 -11.78125 13.421875 -9.40625 C 15.359375 -7.039062 17.921875 -5.859375 21.109375 -5.859375 C 22.804688 -5.859375 24.269531 -6.203125 25.5 -6.890625 Z M 25.5 -6.890625 "/></g></g></g></svg>